<?xml version="1.0" encoding="UTF-8"?>
<svg width="84px" height="96px" viewBox="0 0 84 96" version="1.1" xmlns="http://www.w3.org/2000/svg" xmlns:xlink="http://www.w3.org/1999/xlink">
    <!-- Generator: sketchtool 55.1 (78136) - https://sketchapp.com -->
    <title>39B5062C-A1DA-4040-A41D-D190F377C06C</title>
    <desc>Created with sketchtool.</desc>
    <g id="Page-1" stroke="none" stroke-width="1" fill="none" fill-rule="evenodd">
        <g id="Ilara's-Health-Main-Vol2" transform="translate(-274.000000, -1537.000000)" fill-rule="nonzero">
            <g id="Our-Solution" transform="translate(-21.000000, 1243.000000)">
                <g id="Solution_cards" transform="translate(152.000000, 234.000000)">
                    <g id="AI_card">
                        <g id="AI_icon" transform="translate(143.000000, 60.000000)">
                            <path d="M42.0938938,20.1228387 C44.6608406,20.1228387 46.7497829,18.0387097 46.7497829,15.4776774 C46.7497829,12.9166452 44.6608406,10.8325161 42.0938938,10.8325161 C39.5269469,10.8325161 37.4380046,12.9166452 37.4380046,15.4776774 C37.4380046,18.0387097 39.5269469,20.1228387 42.0938938,20.1228387 Z M42.0938938,13.9292903 C42.9505774,13.9292903 43.6458568,14.6245161 43.6458568,15.4776774 C43.6458568,16.3308387 42.9505774,17.0260645 42.0938938,17.0260645 C41.2372102,17.0260645 40.5419307,16.3308387 40.5419307,15.4776774 C40.5419307,14.6245161 41.2372102,13.9292903 42.0938938,13.9292903 Z" id="Shape" fill="#40C8E9"></path>
                            <path d="M42.0938938,52.6389677 C40.3820785,52.6389677 38.9899677,51.2500645 38.9899677,49.5421935 L35.8860416,49.5421935 C35.8860416,52.9579355 38.6702633,55.7357419 42.0938938,55.7357419 C45.5175242,55.7357419 48.301746,52.9579355 48.301746,49.5421935 L45.1978199,49.5421935 C45.1978199,51.2500645 43.805709,52.6389677 42.0938938,52.6389677 Z" id="Path" fill="#252161"></path>
                            <path d="M80.4335889,51.0952258 C80.7300139,50.112 80.89297,49.0714839 80.89297,47.9938065 C80.89297,44.372129 79.044582,41.0012903 76.0508453,39.0007742 C76.1718984,38.4030968 76.2370808,37.7868387 76.2370808,37.1550968 C76.2370808,33.0085161 73.499418,29.4890323 69.7312517,28.2983226 C68.5998707,23.1731613 64.2745497,19.296 59.0785774,18.6735484 C59.1313441,18.1285161 59.1654873,17.5803871 59.1654873,17.0260645 C59.1654873,12.1889032 57.0920647,7.56232258 53.4775427,4.33393548 C49.8676767,1.10864516 45.0146882,-0.425806452 40.152388,0.102193548 C32.5260416,0.944516129 26.2312794,7.04825806 25.1883603,14.6183226 C24.9990208,15.9886452 24.988157,17.3434839 25.1138661,18.672 C19.9163418,19.2929032 15.5863649,23.1700645 14.4549838,28.2983226 C10.6883695,29.4890323 7.9507067,33.0085161 7.9507067,37.1550968 C7.9507067,37.7868387 8.01588915,38.4030968 8.13694226,39.0007742 C5.14320554,41.0012903 3.29481755,44.372129 3.29481755,47.9938065 C3.29481755,49.0714839 3.45777367,50.112 3.75419861,51.0952258 C1.47591686,53.6376774 0.190891455,56.9372903 0.190891455,60.3809032 C0.190891455,65.7785806 3.2591224,70.6033548 8.08262356,72.9228387 C8.69099307,77.3063226 11.6443788,81.0332903 15.7431132,82.6854194 C16.0736813,90.0774194 22.1884157,95.9938065 29.6781894,95.9938065 C35.0852286,95.9938065 39.773709,92.907871 42.0938938,88.4144516 C44.4140785,92.907871 49.1025589,95.9938065 54.5095982,95.9938065 C61.9993718,95.9938065 68.1141062,90.0774194 68.4446744,82.6854194 C72.5434088,81.0332903 75.4967945,77.3063226 76.105164,72.9228387 C80.9286651,70.6033548 83.9968961,65.7785806 83.9968961,60.3809032 C83.9968961,56.9372903 82.7118707,53.6376774 80.4335889,51.0952258 Z M28.2627991,15.0394839 C29.1163788,8.85522581 34.2595843,3.86787097 40.4953718,3.1803871 C44.5366836,2.73135484 48.4103834,3.96232258 51.407224,6.64103226 C54.3652656,9.28412903 56.0615612,13.0683871 56.0615612,17.0260645 C56.0615612,20.1460645 55.0512333,23.0926452 53.1376628,25.5499355 C50.3332656,29.156129 48.4383187,33.0936774 47.4807575,37.1550968 L43.6458568,37.1550968 L43.6458568,23.2196129 L40.5419307,23.2196129 L40.5419307,37.1550968 L36.7675566,37.1550968 C35.8581062,32.9868387 34.0314457,29.1267097 31.3667252,25.9432258 C28.8152979,22.8975484 27.7134042,19.0265806 28.2627991,15.0394839 Z M37.2703926,40.251871 L46.9375704,40.251871 C46.8258291,41.2273548 46.7497829,42.2059355 46.7497829,43.1876129 L46.7497829,43.3486452 L37.4380046,43.3486452 L37.4380046,43.1829677 C37.4380046,42.1950968 37.3697182,41.2196129 37.2703926,40.251871 Z M74.0720924,70.4345806 L73.1595381,70.8 L73.1021155,71.7785806 C72.9081201,75.024 71.0054134,77.8807742 68.2118799,79.3858065 C66.9594457,72.9770323 61.2947806,68.1228387 54.5095982,68.1228387 L54.5095982,71.2196129 C60.4986236,71.2196129 65.3733395,76.0830968 65.3733395,82.0583226 C65.3733395,88.0335484 60.4986236,92.8970323 54.5095982,92.8970323 C48.5205727,92.8970323 43.6458568,88.0335484 43.6458568,82.0583226 L43.6458568,65.0260645 L40.5419307,65.0260645 L40.5419307,82.0583226 C40.5419307,88.0335484 35.6672148,92.8970323 29.6781894,92.8970323 C23.689164,92.8970323 18.814448,88.0335484 18.814448,82.0583226 C18.814448,76.0830968 23.689164,71.2196129 29.6781894,71.2196129 L29.6781894,68.1228387 C22.8930069,68.1228387 17.2283418,72.9770323 15.9743557,79.3858065 C13.1823741,77.8807742 11.2781155,75.024 11.0841201,71.7785806 L11.0266975,70.8 L10.1141432,70.4345806 C5.97195381,68.7731613 3.29481755,64.8263226 3.29481755,60.3809032 C3.29481755,58.1465806 3.99785681,55.9912258 5.25649885,54.1889032 C7.22283603,56.9914839 10.4773025,58.8325161 14.1585589,58.8325161 C16.8372471,58.8325161 19.4088499,57.8523871 21.4031224,56.0717419 L19.3328037,53.7646452 C17.9096536,55.035871 16.0705774,55.7357419 14.1585589,55.7357419 C9.87979677,55.7357419 6.39874365,52.2627097 6.39874365,47.9938065 C6.39874365,45.6340645 7.49442956,43.419871 9.30867436,41.9612903 C10.9444434,44.6446452 13.8916212,46.4454194 17.262485,46.4454194 L17.262485,43.3486452 C13.8388545,43.3486452 11.0546328,40.5708387 11.0546328,37.1550968 C11.0546328,33.7393548 13.8388545,30.9615484 17.262485,30.9615484 C20.6861155,30.9615484 23.4703372,33.7393548 23.4703372,37.1550968 L26.5742633,37.1550968 C26.5742633,32.2110968 22.680388,28.1682581 17.7932564,27.8910968 C18.9805081,24.5249032 22.0704665,22.1063226 25.6834365,21.7532903 C26.3290531,23.9876129 27.4371547,26.0825806 28.9829099,27.9282581 C32.4329238,32.0485161 34.3340785,37.4663226 34.3340785,43.1829677 L34.3340785,46.4454194 L49.853709,46.4454194 L49.853709,43.1876129 C49.853709,37.7156129 51.8371178,32.2745806 55.5897644,27.4498065 C56.9322125,25.7249032 57.8975335,23.7971613 58.4888314,21.7517419 C62.1080092,22.0985806 65.2041755,24.5202581 66.3929792,27.8910968 C61.5073995,28.1682581 57.6135242,32.2110968 57.6135242,37.1550968 L60.7174503,37.1550968 C60.7174503,33.7393548 63.5016721,30.9615484 66.9253025,30.9615484 C70.348933,30.9615484 73.1331547,33.7393548 73.1331547,37.1550968 C73.1331547,40.5708387 70.348933,43.3486452 66.9253025,43.3486452 L66.9253025,46.4454194 C70.2961663,46.4454194 73.2433441,44.6446452 74.8791132,41.9612903 C76.693358,43.419871 77.7890439,45.6340645 77.7890439,47.9938065 C77.7890439,52.2627097 74.3079908,55.7357419 70.0292286,55.7357419 C68.1172102,55.7357419 66.2781339,55.035871 64.8549838,53.7646452 L62.7846651,56.0717419 C64.7789376,57.8523871 67.3505404,58.8325161 70.0292286,58.8325161 C73.710485,58.8325161 76.9649515,56.9914839 78.9312887,54.1889032 C80.1899307,55.9912258 80.89297,58.1465806 80.89297,60.3809032 C80.89297,64.8263226 78.2158337,68.7731613 74.0720924,70.4345806 Z" id="Shape" fill="#252161"></path>
                            <rect id="Rectangle" fill="#40C8E9" x="40.5419307" y="58.8325161" width="3.1039261" height="3.09677419"></rect>
                            <rect id="Rectangle" fill="#40C8E9" x="68.4772656" y="63.4776774" width="3.1039261" height="3.09677419"></rect>
                            <rect id="Rectangle" fill="#40C8E9" x="21.9183741" y="46.4454194" width="3.1039261" height="3.09677419"></rect>
                            <rect id="Rectangle" fill="#40C8E9" x="28.1262263" y="80.5099355" width="3.1039261" height="3.09677419"></rect>
                            <rect id="Rectangle" fill="#40C8E9" x="49.853709" y="55.7357419" width="3.1039261" height="3.09677419"></rect>
                            <rect id="Rectangle" fill="#40C8E9" x="63.8213764" y="37.1550968" width="3.1039261" height="3.09677419"></rect>
                            <rect id="Rectangle" fill="#40C8E9" x="12.6065958" y="65.0260645" width="3.1039261" height="3.09677419"></rect>
                            <rect id="Rectangle" fill="#40C8E9" x="54.5095982" y="75.8647742" width="3.1039261" height="3.09677419"></rect>
                        </g>
                    </g>
                </g>
            </g>
        </g>
    </g>
</svg>