<?xml version="1.0" encoding="UTF-8"?>
<svg width="20px" height="13px" viewBox="0 0 20 13" version="1.1" xmlns="http://www.w3.org/2000/svg" xmlns:xlink="http://www.w3.org/1999/xlink">
    <!-- Generator: Sketch 55.1 (78136) - https://sketchapp.com -->
    <title>email_icon copy</title>
    <desc>Created with Sketch.</desc>
    <g id="Page-1" stroke="none" stroke-width="1" fill="none" fill-rule="evenodd">
        <g id="Ilara's-Health-Main-Vol2-Copy" transform="translate(-1145.000000, -7552.000000)" fill="#252161">
            <g id="Footer" transform="translate(241.000000, 7454.000000)">
                <g id="Emails" transform="translate(904.000000, 60.000000)">
                    <g id="General-Inquiries">
                        <g id="email_icon-copy" transform="translate(0.000000, 38.000000)">
                            <path d="M1.90489796,11.375 L1.90489796,2.526875 L7.77836735,7.3125 C8.44163265,7.8528125 9.25469388,8.1209375 10.0681633,8.1209375 C10.8816327,8.1209375 11.6946939,7.8528125 12.3583673,7.3125 L18.2314286,2.526875 L18.2314286,11.375 L1.90489796,11.375 Z M16.7608163,1.625 L11.3244898,6.053125 C10.5963265,6.64625 9.54,6.64625 8.81183673,6.053125 L3.3755102,1.625 L16.7608163,1.625 Z M19.8604082,0.78 C19.8591837,0.7475 19.8559184,0.7190625 19.8518367,0.690625 C19.8477551,0.66625 19.8436735,0.641875 19.8379592,0.6175 C19.8310204,0.593125 19.822449,0.5646875 19.8134694,0.5403125 C19.8044898,0.5159375 19.795102,0.4915625 19.7836735,0.4671875 C19.7726531,0.4428125 19.7604082,0.4225 19.7469388,0.398125 C19.7322449,0.37375 19.7167347,0.349375 19.6995918,0.3290625 C19.6922449,0.316875 19.6873469,0.30875 19.6795918,0.2965625 C19.6710204,0.2884375 19.6608163,0.2803125 19.6518367,0.2721875 C19.6330612,0.251875 19.6130612,0.2315625 19.5918367,0.21125 C19.5722449,0.195 19.5522449,0.17875 19.5314286,0.1625 C19.5102041,0.14625 19.4889796,0.1340625 19.4665306,0.1178125 C19.4428571,0.105625 19.4195918,0.0934375 19.395102,0.08125 C19.3722449,0.0690625 19.3485714,0.0609375 19.324898,0.0528125 C19.2983673,0.0446875 19.2722449,0.0325 19.2453061,0.0284375 C19.2216327,0.0203125 19.1979592,0.01625 19.1734694,0.0121875 C19.1436735,0.008125 19.1142857,0.0040625 19.0840816,0.0040625 C19.0718367,0.0040625 19.0604082,0 19.0477551,0 L1.08857143,0 C1.07591837,0 1.0644898,0.0040625 1.0522449,0.0040625 C1.02204082,0.0040625 0.992244898,0.008125 0.96244898,0.0121875 C0.938367347,0.01625 0.914693878,0.0203125 0.891428571,0.0284375 C0.863673469,0.0325 0.837142857,0.0446875 0.810612245,0.0528125 C0.787346939,0.0609375 0.764489796,0.0690625 0.742040816,0.08125 C0.716734694,0.0934375 0.692653061,0.105625 0.668979592,0.1178125 C0.646938776,0.1340625 0.626122449,0.14625 0.605714286,0.1625 C0.584489796,0.17875 0.564081633,0.195 0.544081633,0.21125 C0.523265306,0.2315625 0.503265306,0.251875 0.484489796,0.2721875 C0.475918367,0.2803125 0.465306122,0.2884375 0.456734694,0.2965625 C0.448979592,0.30875 0.444081633,0.316875 0.436734694,0.3290625 C0.419591837,0.349375 0.404081633,0.37375 0.389387755,0.398125 C0.375918367,0.4225 0.363673469,0.4428125 0.352653061,0.4671875 C0.34122449,0.4915625 0.331836735,0.5159375 0.322857143,0.5403125 C0.313877551,0.5646875 0.305306122,0.593125 0.298367347,0.6175 C0.292653061,0.641875 0.288571429,0.66625 0.284489796,0.690625 C0.280408163,0.7190625 0.277142857,0.7475 0.275918367,0.78 C0.275102041,0.788125 0.272244898,0.8003125 0.272244898,0.8125 L0.272244898,12.1875 C0.272244898,12.6384375 0.637959184,13 1.08857143,13 L19.0477551,13 C19.4983673,13 19.8640816,12.6384375 19.8640816,12.1875 L19.8640816,0.8125 C19.8640816,0.8003125 19.8612245,0.788125 19.8604082,0.78 L19.8604082,0.78 Z" id="Fill-354"></path>
                        </g>
                    </g>
                </g>
            </g>
        </g>
    </g>
</svg>