<?xml version="1.0" encoding="UTF-8"?>
<svg width="94px" height="96px" viewBox="0 0 94 96" version="1.1" xmlns="http://www.w3.org/2000/svg" xmlns:xlink="http://www.w3.org/1999/xlink">
    <!-- Generator: sketchtool 55.1 (78136) - https://sketchapp.com -->
    <title>81878BC2-6E2F-4A2D-84D5-AA27CA762ED7</title>
    <desc>Created with sketchtool.</desc>
    <g id="Page-1" stroke="none" stroke-width="1" fill="none" fill-rule="evenodd">
        <g id="Ilara's-Health-Main-Vol2" transform="translate(-273.000000, -4722.000000)" fill-rule="nonzero">
            <g id="We-Focus" transform="translate(122.000000, 3816.000000)">
                <g id="Focus_cards" transform="translate(13.000000, 846.000000)">
                    <g id="Infections_card">
                        <g id="Infections_icon" transform="translate(138.000000, 60.000000)">
                            <ellipse id="Oval" fill="#FFFFFF" cx="63.0707863" cy="25.2672" rx="1.60683761" ry="1.6"></ellipse>
                            <ellipse id="Oval" fill="#FFFFFF" cx="54.4131453" cy="54.544" rx="1.60683761" ry="1.6"></ellipse>
                            <ellipse id="Oval" fill="#FFFFFF" cx="40.5750598" cy="37.7328" rx="1.60683761" ry="1.6"></ellipse>
                            <ellipse id="Oval" fill="#40C8E9" cx="22.5302735" cy="40.512" rx="1.60683761" ry="1.6"></ellipse>
                            <ellipse id="Oval" fill="#FFFFFF" cx="29.3271966" cy="36.1328" rx="1.60683761" ry="1.6"></ellipse>
                            <ellipse id="Oval" fill="#40C8E9" cx="68.2126667" cy="37.7328" rx="1.60683761" ry="1.6"></ellipse>
                            <ellipse id="Oval" fill="#40C8E9" cx="47.0024103" cy="71.3968" rx="1.60683761" ry="1.6"></ellipse>
                            <path d="M56.6410256,28.7984 C53.9786966,28.7984 51.8205128,30.9474 51.8205128,33.5984 C51.8205128,36.2494 53.9786966,38.3984 56.6410256,38.3984 C59.3033547,38.3984 61.4615385,36.2494 61.4615385,33.5984 C61.4615385,30.9474 59.3035556,28.7984 56.6410256,28.7984 Z M56.6410256,35.1984 C55.7550556,35.1984 55.034188,34.4806 55.034188,33.5984 C55.034188,32.7162 55.7550556,31.9984 56.6410256,31.9984 C57.5269957,31.9984 58.2478632,32.7162 58.2478632,33.5984 C58.2478632,34.4806 57.5271966,35.1984 56.6410256,35.1984 Z" id="Shape" fill="#40C8E9"></path>
                            <path d="M45.3931624,51.3476 C42.7308333,51.3476 40.5726496,53.4966 40.5726496,56.1476 C40.5726496,58.7986 42.7308333,60.9476 45.3931624,60.9476 C48.0554915,60.9476 50.2136752,58.7986 50.2136752,56.1476 C50.2136752,53.4966 48.0556923,51.3476 45.3931624,51.3476 Z M45.3931624,57.7476 C44.5071923,57.7476 43.7863248,57.0298 43.7863248,56.1476 C43.7863248,55.2654 44.5071923,54.5476 45.3931624,54.5476 C46.2791325,54.5476 47,55.2654 47,56.1476 C47,57.0298 46.2793333,57.7476 45.3931624,57.7476 Z" id="Shape" fill="#40C8E9"></path>
                            <path d="M35.7521368,23.6666 C33.0898077,23.6666 30.9316239,25.8156 30.9316239,28.4666 C30.9316239,31.1176 33.0900085,33.2666 35.7521368,33.2666 C38.4144658,33.2666 40.5726496,31.1176 40.5726496,28.4666 C40.5726496,25.8156 38.4146667,23.6666 35.7521368,23.6666 Z M35.7521368,30.0666 C34.8661667,30.0666 34.1452991,29.3488 34.1452991,28.4666 C34.1452991,27.5844 34.8661667,26.8666 35.7521368,26.8666 C36.6381068,26.8666 37.3589744,27.5844 37.3589744,28.4666 C37.3589744,29.3488 36.6383077,30.0666 35.7521368,30.0666 Z" id="Shape" fill="#40C8E9"></path>
                            <ellipse id="Oval" fill="#FFFFFF" cx="71.4263419" cy="28.4672" rx="3.21367521" ry="3.2"></ellipse>
                            <ellipse id="Oval" fill="#FFFFFF" cx="54.4131453" cy="66.128" rx="3.21367521" ry="3.2"></ellipse>
                            <ellipse id="Oval" fill="#FFFFFF" cx="22.5624103" cy="30.0672" rx="3.21367521" ry="3.2"></ellipse>
                            <ellipse id="Oval" fill="#FFFFFF" cx="62.4473333" cy="44.7664" rx="3.21367521" ry="3.2"></ellipse>
                            <ellipse id="Oval" fill="#FFFFFF" cx="38.9682222" cy="66.128" rx="3.21367521" ry="3.2"></ellipse>
                            <ellipse id="Oval" fill="#FFFFFF" cx="32.5408718" cy="43.712" rx="3.21367521" ry="3.2"></ellipse>
                            <path d="M87.5381026,42.2 C86.5494957,42.2 85.6111026,41.95 84.7512436,41.4548 L83.1538462,40.536 C81.6663162,39.6812 80.7435897,38.0892 80.7435897,36.3796 L80.7435897,32.6874 C80.7435897,30.9766 81.6663162,29.3842 83.1538462,28.5296 L84.7512436,27.6108 C85.6016624,27.1232 86.5810299,26.7468 87.5381026,26.8672 C91.0813803,26.8672 93.965453,23.997 93.965453,20.4672 C93.965453,16.9374 91.0813803,14.0672 87.5381026,14.0672 C85.2503675,14.0672 83.1160855,15.2922 81.970812,17.2672 C81.4811282,18.1094 80.7781368,18.8094 79.9371581,19.2922 L78.3837479,20.186 C76.8930043,21.0424 75.050765,21.036 73.5664487,20.186 L70.2993462,18.3094 C68.8118162,17.4546 67.8890897,15.8626 67.8890897,14.1516 L67.8890897,12.3452 C67.8890897,11.3624 68.1433718,10.428 68.6390812,9.5702 C69.2008718,8.6062 69.4957265,7.5094 69.4957265,6.4 C69.4957265,2.8702 66.6116538,0 63.0683761,0 C59.5250983,0 56.6410256,2.8702 56.6410256,6.4 C56.6410256,7.5094 56.9360812,8.6062 57.4978718,9.5702 C57.9875556,10.4154 58.2478632,11.3748 58.2478632,12.3452 L58.2478632,14.1514 C58.2478632,15.8622 57.3251368,17.4546 55.8376068,18.3092 L47.0002009,23.3888 L38.1623932,18.3076 C36.6748632,17.4544 35.7521368,15.8624 35.7521368,14.1512 C35.7521368,12.3388 36.1192991,10.57 36.8411709,8.8964 C37.6915897,6.9338 37.4875214,4.6856 36.2982607,2.8824 C35.1057863,1.078 33.1002521,0 30.9316239,0 C28.7629957,0 26.7574615,1.078 25.565188,2.8828 C24.3757265,4.686 24.1716581,6.9344 25.0222778,8.8968 C25.7347094,10.5468 26.111312,12.3608 26.111312,14.142 C26.111312,15.8576 25.1885855,17.4544 23.7010556,18.3092 L20.433953,20.1858 C18.9496368,21.0406 17.1073974,21.0436 15.6166538,20.1858 C14.0473761,19.2826 12.701047,18.0904 11.6152265,16.6436 C10.3912179,15.006 8.51121795,14.067 6.46189744,14.067 C2.91861966,14.067 0.0345470085,16.9372 0.0345470085,20.467 C0.0345470085,23.9968 2.91861966,26.867 6.46511111,26.867 C7.4472906,26.867 8.38889744,27.117 9.24875641,27.6122 L10.8461538,28.5312 C12.3336838,29.3844 13.2564103,30.9764 13.2564103,32.6876 L13.2564103,36.3798 C13.2564103,38.0892 12.3336838,39.6814 10.8461538,40.5362 L9.24875641,41.455 C8.40135043,41.9422 7.43805128,42.2 6.46189744,42.2 C2.91861966,42.2 0.0345470085,45.0702 0.0345470085,48.6 C0.0345470085,52.1298 2.91861966,55 6.46189744,55 C8.74963248,55 10.8839145,53.7734 12.0261752,51.8032 C12.5188718,50.9596 13.2218632,50.2564 14.0598291,49.775 L15.720094,48.8202 C17.2076239,47.9638 19.0530769,47.967 20.5406068,48.8202 L29.3247863,53.87 L29.3247863,64.5796 C29.3247863,66.289 28.4020598,67.8812 26.9145299,68.736 L25.3171325,69.6548 C24.4697265,70.1424 23.5062265,70.4 22.5302735,70.4 C18.9869957,70.4 16.1029231,73.2702 16.1029231,76.8 C16.1029231,80.3298 18.9869957,83.2 22.5302735,83.2 C24.8180085,83.2 26.9522906,81.9734 28.0945513,80.0032 C28.5872479,79.1596 29.2902393,78.4564 30.1282051,77.975 L32.2120726,76.7766 C33.7028162,75.9202 35.5482692,75.9234 37.0325855,76.7766 L39.7692308,78.35 C41.2567607,79.2048 42.1794872,80.7968 42.1794872,82.5064 L42.1794872,83.6548 C42.1794872,84.6376 41.9252051,85.572 41.4294957,86.4298 C40.8677051,87.3938 40.5726496,88.4908 40.5726496,89.6 C40.5726496,93.1298 43.4567222,96 47,96 C50.5432778,96 53.4273504,93.1298 53.4273504,89.6 C53.4273504,88.4906 53.1322949,87.3938 52.5705043,86.4298 C52.0808205,85.5846 51.8205128,84.6252 51.8205128,83.6548 L51.8205128,82.5064 C51.8205128,80.797 52.7432393,79.2048 54.2307692,78.35 L56.9674145,76.7766 C58.4517308,75.9218 60.2971838,75.9218 61.7879274,76.7766 L63.8717949,77.975 C64.7222137,78.464 65.4065256,79.1468 65.9054487,80 C67.0477094,81.9734 69.1819915,83.2 71.4697265,83.2 C75.0130043,83.2 77.8970769,80.3298 77.8970769,76.8 C77.8970769,73.2702 75.0130043,70.4 71.4697265,70.4 C70.4811197,70.4 69.5427265,70.15 68.6828675,69.6548 L67.0854701,68.736 C65.5979402,67.8812 64.6752137,66.2892 64.6752137,64.5796 L64.6752137,53.87 L73.4593932,48.8202 C74.9437094,47.9686 76.7891624,47.9654 78.279906,48.8202 L79.9401709,49.775 C80.7905897,50.2642 81.4749017,50.9468 81.9738248,51.8 C83.1160855,53.7734 85.2503675,55 87.5381026,55 C91.0813803,55 93.965453,52.1298 93.965453,48.6 C93.965453,45.0702 91.0813803,42.2 87.5381026,42.2 Z M22.1474444,46.0484 C19.6775342,44.6264 16.5956197,44.6234 14.1132564,46.0484 L12.4529915,47.0032 C11.1285556,47.7658 10.020641,48.8688 9.24554274,50.2 C8.67129915,51.1876 7.60737179,51.8 6.46189744,51.8 C4.68875214,51.8 3.24822222,50.364 3.24822222,48.6 C3.24822222,46.836 4.68875214,45.4 6.46189744,45.4 C8.0028547,45.4 9.52171795,44.9938 10.855594,44.2266 L12.4529915,43.3078 C14.9323419,41.8828 16.4700855,39.2282 16.4700855,36.3796 L16.4700855,32.6874 C16.4700855,29.8358 14.9291282,27.1812 12.4529915,25.7592 L10.855594,24.8404 C9.51870513,24.0732 8.0028547,23.667 6.47133761,23.667 C4.69819231,23.667 3.24822222,22.231 3.24822222,20.467 C3.24822222,18.703 4.68875214,17.267 6.46189744,17.267 C7.48826496,17.267 8.42665812,17.7372 9.04167521,18.5562 C10.3880043,20.3546 12.0577094,21.8342 14.0096154,22.9578 C16.4857521,24.3798 19.5582265,24.3828 22.0405897,22.9578 L25.3076923,21.0812 C27.7870427,19.6562 29.3247863,16.9984 29.3247863,14.1422 C29.3247863,11.9282 28.8571966,9.6782 27.9722308,7.6314 C27.551641,6.6596 27.6552821,5.5422 28.2514188,4.6422 C29.4627735,2.8078 32.4002735,2.8078 33.6116282,4.6422 C34.2079658,5.5422 34.311406,6.6594 33.8908162,7.6314 C32.9933974,9.708 32.5384615,11.9016 32.5384615,14.1516 C32.5384615,17.0016 34.0762051,19.6562 36.5555556,21.0798 L45.3931624,26.1594 L45.3931624,42.786 L30.9316239,51.1 L22.1474444,46.0484 Z M65.4786325,71.5078 L67.0760299,72.4266 C68.4131197,73.1938 69.9319829,73.6 71.4697265,73.6 C73.2428718,73.6 74.6834017,75.036 74.6834017,76.8 C74.6834017,78.564 73.2428718,80 71.4697265,80 C70.3242521,80 69.2603248,79.3876 68.6860812,78.3968 C67.9139957,77.0702 66.8030684,75.9656 65.4786325,75.203 L63.394765,74.0046 C60.9124017,72.5764 57.8304872,72.5826 55.3605769,74.0046 L52.6239316,75.578 C50.1445812,77.003 48.6068376,79.6576 48.6068376,82.5062 L48.6068376,83.6546 C48.6068376,85.1874 49.0147735,86.6998 49.7898718,88.0326 C50.066047,88.5106 50.2136752,89.0514 50.2136752,89.5998 C50.2136752,91.3638 48.7731453,92.7998 47,92.7998 C45.2268547,92.7998 43.7863248,91.3638 43.7863248,89.5998 C43.7863248,89.0514 43.9337521,88.5106 44.2101282,88.031 C44.9852265,86.6998 45.3931624,85.1858 45.3931624,83.6544 L45.3931624,82.506 C45.3931624,79.6576 43.8554188,77.0028 41.3760684,75.5778 L38.6394231,74.0044 C37.4029615,73.2936 36.0126453,72.9372 34.6223291,72.9372 C33.2352265,72.9372 31.8449103,73.2936 30.605235,74.0044 L28.5213675,75.2028 C27.1969316,75.9654 26.0890171,77.0684 25.3139188,78.3996 C24.7396752,79.3874 23.6757479,80 22.5302735,80 C20.7571282,80 19.3165983,78.564 19.3165983,76.8 C19.3165983,75.036 20.7571282,73.6 22.5302735,73.6 C24.0712308,73.6 25.590094,73.1938 26.9239701,72.4266 L28.5213675,71.5078 C31.0007179,70.0828 32.5384615,67.4282 32.5384615,64.5796 L32.5384615,53.8702 L47,45.5594 L61.4615385,53.8702 L61.4615385,64.5796 C61.4615385,67.4282 62.9992821,70.0828 65.4786325,71.5078 Z M87.5381026,51.8 C86.3926282,51.8 85.3287009,51.1876 84.7544573,50.1968 C83.9823718,48.8702 82.8714444,47.7656 81.5470085,47.003 L79.8867436,46.0482 C78.6470684,45.3374 77.2567521,44.981 75.8696496,44.981 C74.4793333,44.981 73.0890171,45.3374 71.8525556,46.0498 L63.0683761,51.0998 L48.6068376,42.7858 L48.6068376,26.1594 L57.4444444,21.0814 C59.9237949,19.6564 61.4615385,17.0018 61.4615385,14.1516 L61.4615385,12.3454 C61.4615385,10.8126 61.0536026,9.3002 60.2785043,7.9674 C60.0023291,7.4892 59.8547009,6.9484 59.8547009,6.4 C59.8547009,4.636 61.2952308,3.2 63.0683761,3.2 C64.8415214,3.2 66.2820513,4.636 66.2820513,6.4 C66.2820513,6.9484 66.1346239,7.4892 65.8582479,7.9688 C65.0833504,9.3 64.6752137,10.814 64.6752137,12.3454 L64.6752137,14.1516 C64.6752137,17.0016 66.2129573,19.6562 68.6923077,21.0814 L71.9594103,22.958 C74.4417735,24.38 77.5142479,24.3768 79.9903846,22.958 L81.5437949,22.0642 C82.8714444,21.3016 83.9791581,20.197 84.7512436,18.8688 C85.3254872,17.8812 86.3926282,17.2672 87.5381026,17.2672 C89.3112479,17.2672 90.7517778,18.7032 90.7517778,20.4672 C90.7517778,22.2312 89.3112479,23.6672 87.5413162,23.6672 C87.5350897,23.6672 87.5318761,23.6672 87.5318761,23.6672 C85.9971453,23.6672 84.4814957,24.0718 83.144406,24.8406 L81.5470085,25.7596 C79.0708718,27.1816 77.5299145,29.8362 77.5299145,32.6878 L77.5299145,36.38 C77.5299145,39.2284 79.0676581,41.8832 81.5470085,43.3082 L83.144406,44.227 C84.4812949,44.9942 86.0001581,45.4004 87.5381026,45.4004 C89.3112479,45.4004 90.7517778,46.8364 90.7517778,48.6004 C90.7517778,50.3644 89.3112479,51.8 87.5381026,51.8 Z" id="Shape" fill="#FFFFFF"></path>
                        </g>
                    </g>
                </g>
            </g>
        </g>
    </g>
</svg>