<?xml version="1.0" encoding="UTF-8"?>
<svg width="96px" height="96px" viewBox="0 0 96 96" version="1.1" xmlns="http://www.w3.org/2000/svg" xmlns:xlink="http://www.w3.org/1999/xlink">
    <!-- Generator: sketchtool 55.1 (78136) - https://sketchapp.com -->
    <title>B1E8850B-6D6B-40CB-ABED-A4F81976A479</title>
    <desc>Created with sketchtool.</desc>
    <g id="Page-1" stroke="none" stroke-width="1" fill="none" fill-rule="evenodd">
        <g id="Ilara's-Health-Main-Vol2" transform="translate(-1072.000000, -4722.000000)" fill-rule="nonzero">
            <g id="We-Focus" transform="translate(122.000000, 3816.000000)">
                <g id="Focus_cards" transform="translate(13.000000, 846.000000)">
                    <g id="Maternal_card" transform="translate(800.000000, 0.000000)">
                        <g id="Maternal_icon" transform="translate(137.000000, 60.000000)">
                            <path d="M74.3323125,92.626125 L64.2624375,82.5549375 C63.9106875,82.203375 63.433875,82.00575 62.936625,82.00575 C62.9356875,82.00575 62.93475,82.00575 62.934,82.00575 L57.5311875,82.0134375 C57.519375,82.0134375 57.5075625,82.0134375 57.49575,82.0134375 C54.513375,82.0134375 51.52575,81.465 48.7295625,80.4185625 L51.971625,78.2445 C53.29875,77.354625 54.1910625,75.9995625 54.4845,74.428875 C54.77775,72.858 54.434625,71.272125 53.518125,69.963 C52.3785,68.3355 50.54325,67.452 48.674625,67.452 C48.64425,67.452 48.613875,67.4521875 48.5833125,67.45275 L56.05125,59.9848125 C58.3168125,57.7190625 58.3168125,54.0324375 56.05125,51.7666875 C55.5,51.2154375 54.8574375,50.788875 54.1576875,50.5005 C54.6763125,49.618875 54.953625,48.6118125 54.953625,47.562 C54.953625,46.009875 54.349125,44.550375 53.2516875,43.45275 C52.1540625,42.355125 50.69475,41.750625 49.1424375,41.750625 C48.092625,41.750625 47.08575,42.028125 46.2039375,42.54675 C45.9155625,41.847 45.489,41.2044375 44.93775,40.653 C43.840125,39.555375 42.3808125,38.950875 40.8285,38.950875 C39.2761875,38.950875 37.816875,39.555375 36.71925,40.653 L34.0378125,43.3344375 C33.752625,42.706125 33.3549375,42.127125 32.8524375,41.6244375 C31.7548125,40.5268125 30.2955,39.9225 28.7431875,39.9225 C27.190875,39.9225 25.7315625,40.527 24.6339375,41.6244375 L23.445375,42.813 L18.6133125,38.008125 C17.2096875,36.6045 17.2096875,34.3205625 18.6133125,32.9169375 C19.92825,31.602 22.0155,31.519125 23.4279375,32.6675625 L28.1075625,37.347375 C28.47375,37.7135625 28.9535625,37.8965625 29.433375,37.8965625 C29.9131875,37.8965625 30.3931875,37.713375 30.7591875,37.347375 C31.491375,36.6151875 31.491375,35.4279375 30.7591875,34.69575 L22.6861875,26.62275 C21.2825625,25.2189375 21.2825625,22.935 22.6861875,21.531375 C24.0898125,20.1275625 26.3739375,20.12775 27.7775625,21.531375 L41.922,35.703 C42.2881875,36.0691875 42.768,36.2521875 43.2478125,36.2521875 C43.727625,36.2521875 44.207625,36.069 44.573625,35.703 C45.3058125,34.9708125 45.3058125,33.7835625 44.573625,33.051375 L33.8225625,22.2729375 C32.674125,20.8603125 32.7571875,18.77325 34.0719375,17.4585 C35.47575,16.054875 37.759875,16.054875 39.1633125,17.4585 L43.1023125,21.3976875 C43.8346875,22.1300625 45.0219375,22.1300625 45.7539375,21.3976875 C46.486125,20.6655 46.4863125,19.47825 45.7539375,18.7460625 L41.8149375,14.806875 C38.949,11.941125 34.2860625,11.9413125 31.4203125,14.806875 C30.47325,15.7539375 29.841375,16.8976875 29.5201875,18.107625 C28.27875,17.21175 26.793,16.7270625 25.231875,16.7270625 C23.2685625,16.7270625 21.4228125,17.4916875 20.0345625,18.87975 C17.4549375,21.459375 17.1988125,25.4945625 19.2631875,28.3651875 C18.0530625,28.6861875 16.9089375,29.31825 15.9616875,30.2655 C13.2571875,32.9701875 13.1064375,37.274625 15.506625,40.1593125 C14.3233125,40.486125 13.206,41.1118125 12.2776875,42.040125 C9.412125,44.905875 9.412125,49.5688125 12.2776875,52.43475 L13.1145,53.2715625 C9.9504375,57.0706875 8.230875,61.810875 8.238,66.8165625 L8.2425,69.9223125 L0.5491875,77.6161875 C-0.183,78.348375 -0.183,79.535625 0.5491875,80.268 C0.915375,80.634 1.3951875,80.8171875 1.875,80.8171875 C2.3548125,80.8171875 2.8348125,80.634 3.2008125,80.268 L11.4444375,72.0241875 C11.79675,71.671875 11.994375,71.19375 11.993625,70.6955625 L11.988,66.8115 C11.98125,62.151375 13.7926875,57.7696875 17.088,54.474375 L26.392875,45.1693125 C26.392875,45.1693125 26.392875,45.169125 26.3930625,45.169125 L27.2855625,44.276625 C27.6748125,43.8871875 28.1923125,43.672875 28.743,43.672875 C29.2936875,43.672875 29.8111875,43.8871875 30.2004375,44.276625 C30.589875,44.665875 30.8041875,45.183375 30.8041875,45.7340625 C30.8041875,46.20675 30.6451875,46.6546875 30.3538125,47.0184375 L27.87525,49.497 C27.1430625,50.2291875 27.1430625,51.4164375 27.87525,52.1488125 C27.8769375,52.1505 27.8788125,52.1518125 27.8803125,52.1535 C27.882,52.1551875 27.8833125,52.156875 27.885,52.1585625 C28.2511875,52.5245625 28.731,52.70775 29.2108125,52.70775 C29.690625,52.70775 30.170625,52.5245625 30.536625,52.1585625 L39.3705,43.305 C39.75975,42.9155625 40.27725,42.70125 40.8279375,42.70125 C41.378625,42.70125 41.896125,42.91575 42.285375,43.305 C43.0335,44.053125 43.0843125,45.23775 42.4393125,46.04625 L33.4415625,55.0636875 C32.709375,55.795875 32.709375,56.983125 33.4415625,57.7155 C33.80775,58.0815 34.2875625,58.2646875 34.767375,58.2646875 C35.2471875,58.2646875 35.7271875,58.0815 36.0931875,57.7155 L47.68425,46.10475 C48.0735,45.7153125 48.591,45.501 49.1416875,45.501 C49.692375,45.501 50.209875,45.7155 50.599125,46.10475 C51.40275,46.908375 51.40275,48.216 50.599125,49.019625 L38.9885625,60.6105 C38.256375,61.3426875 38.2561875,62.5299375 38.9885625,63.2623125 C39.7209375,63.9943125 40.9081875,63.9945 41.6401875,63.2623125 L50.6578125,54.2645625 C51.466125,53.619375 52.65075,53.6701875 53.398875,54.4186875 C54.2025,55.222125 54.2025,56.5299375 53.398875,57.333375 L40.7398125,69.9928125 C39.8480625,70.884375 39.7655625,72.251625 40.543875,73.243875 C41.322,74.236125 42.66975,74.4819375 43.74825,73.828125 L47.5726875,71.5096875 C48.5368125,70.924875 49.7986875,71.1905625 50.445375,72.114375 C50.7793125,72.5911875 50.9041875,73.1686875 50.7973125,73.7409375 C50.6904375,74.3128125 50.3655,74.8063125 49.8823125,75.1303125 L41.034375,81.0635625 C38.1553125,82.99425 34.802625,84.0140625 31.3365,84.0140625 C31.3284375,84.0140625 31.32,84.0140625 31.3119375,84.0140625 L25.302375,84.0054375 C25.3014375,84.0054375 25.3006875,84.0054375 25.29975,84.0054375 C24.8025,84.0054375 24.3255,84.2030625 23.9739375,84.554625 L15.730125,92.7984375 C14.9979375,93.530625 14.9979375,94.717875 15.730125,95.45025 C16.0963125,95.81625 16.576125,95.9994375 17.0559375,95.9994375 C17.53575,95.9994375 18.01575,95.81625 18.38175,95.45025 L26.07525,87.75675 L31.3066875,87.76425 C31.316625,87.76425 31.3261875,87.76425 31.3363125,87.76425 C35.5485,87.76425 39.624,86.5245 43.12275,84.1783125 L45.0174375,82.9078125 C48.889125,84.7760625 53.19675,85.764 57.4948125,85.764 C57.508125,85.764 57.5221875,85.764 57.5356875,85.764 L62.1601875,85.7574375 L71.6806875,95.2779375 C72.046875,95.6439375 72.5266875,95.827125 73.0065,95.827125 C73.4863125,95.827125 73.9663125,95.6439375 74.3323125,95.2779375 C75.0645,94.54575 75.0645,93.3585 74.3323125,92.626125 Z M19.5665625,46.6925625 C19.566375,46.69275 19.566375,46.69275 19.5661875,46.6929375 L15.7025625,50.5565625 L14.9295,49.7835 C13.525875,48.3796875 13.525875,46.09575 14.9295,44.692125 C16.2444375,43.3771875 18.3316875,43.2943125 19.744125,44.44275 L20.78025,45.478875 L19.5665625,46.6925625 Z" id="Shape" fill="#FFFFFF"></path>
                            <path d="M95.450625,71.509125 C95.101875,71.1585 94.618125,70.95975 94.125,70.95975 C93.631875,70.95975 93.148125,71.1585 92.799375,71.509125 C92.450625,71.857875 92.25,72.33975 92.25,72.83475 C92.25,73.327875 92.450625,73.811625 92.799375,74.1601875 C93.148125,74.5089375 93.631875,74.70975 94.125,74.70975 C94.618125,74.70975 95.101875,74.509125 95.450625,74.1601875 C95.799375,73.8095625 96,73.327875 96,72.83475 C96,72.3395625 95.799375,71.857875 95.450625,71.509125 Z" id="Path" fill="#40C8E9"></path>
                            <path d="M90.40875,66.4665 L85.930125,61.987875 L85.941,54.406875 C85.9490625,48.679125 84.267375,43.1371875 81.07725,38.3799375 L72.8244375,26.0728125 C71.6971875,24.3916875 69.980625,23.26125 67.9910625,22.889625 C66.0013125,22.518 63.992625,22.9528125 62.33475,24.1138125 C59.61825,26.016 58.5380625,29.448 59.498625,32.490375 L54.5983125,27.589875 C53.866125,26.857875 52.678875,26.857875 51.9465,27.589875 C51.2143125,28.3220625 51.2143125,29.5093125 51.9465,30.2416875 L62.4735,40.7686875 C63.447375,41.7425625 64.9411875,41.83275 66.0249375,40.9824375 C67.1086875,40.1323125 67.3771875,38.66025 66.663,37.4821875 L63.438,32.1624375 C62.4255,30.4921875 62.885625,28.306125 64.4855625,27.1858125 C65.3113125,26.60775 66.312375,26.3911875 67.3025625,26.57625 C68.2935,26.7613125 69.1483125,27.324375 69.7096875,28.1615625 L77.9625,40.4686875 C80.7358125,44.6045625 82.1979375,49.422375 82.1908125,54.401625 L82.179,62.76075 C82.17825,63.2589375 82.375875,63.7370625 82.7281875,64.089375 L87.757125,69.1183125 C88.1233125,69.4843125 88.603125,69.6675 89.0829375,69.6675 C89.56275,69.6675 90.04275,69.4843125 90.40875,69.1183125 C91.1409375,68.386125 91.1409375,67.198875 90.40875,66.4665 Z" id="Path" fill="#FFFFFF"></path>
                            <path d="M50.19,23.182875 C49.843125,22.834125 49.359375,22.6335 48.86625,22.6335 C48.37125,22.6335 47.889375,22.834125 47.53875,23.182875 C47.19,23.531625 46.989375,24.015375 46.989375,24.5085 C46.989375,25.0035 47.19,25.485375 47.53875,25.834125 C47.889375,26.182875 48.37125,26.3835 48.86625,26.3835 C49.359375,26.3835 49.84125,26.182875 50.19,25.834125 C50.540625,25.485375 50.74125,25.001625 50.74125,24.5085 C50.74125,24.015375 50.540625,23.531625 50.19,23.182875 Z" id="Path" fill="#40C8E9"></path>
                            <path d="M67.5909375,52.2795 C68.323125,51.5473125 68.323125,50.3600625 67.5909375,49.6276875 C66.85875,48.8956875 65.6715,48.8956875 64.939125,49.6276875 L64.12125,50.4455625 C60.619875,53.947125 60.619875,59.6445 64.12125,63.145875 C64.4874375,63.511875 64.96725,63.6950625 65.4470625,63.6950625 C65.926875,63.6950625 66.406875,63.511875 66.772875,63.145875 C67.5050625,62.4136875 67.50525,61.2264375 66.772875,60.4940625 C64.733625,58.4548125 64.733625,55.1364375 66.772875,53.0971875 L67.5909375,52.2795 Z" id="Path" fill="#40C8E9"></path>
                            <path d="M89.4935625,10.125375 C88.301625,10.125375 87.1365,10.463625 86.1290625,11.0821875 C85.121625,10.463625 83.9565,10.125375 82.7645625,10.125375 C79.1769375,10.125375 76.258125,13.097625 76.258125,16.7506875 C76.258125,18.8210625 77.7466875,21.3075 80.8089375,24.3525 C82.8706875,26.402625 84.9045,27.963 84.9901875,28.0284375 C85.3261875,28.2855 85.727625,28.4139375 86.1290625,28.4139375 C86.5305,28.4139375 86.93175,28.2855 87.2679375,28.0284375 C87.353625,27.963 89.3874375,26.4024375 91.4491875,24.3525 C94.5114375,21.3076875 96,18.8210625 96,16.7506875 C96,13.0974375 93.0811875,10.125375 89.4935625,10.125375 Z M86.1285,24.14025 C82.995,21.53775 80.008125,18.217125 80.008125,16.7506875 C80.008125,15.1651875 81.2446875,13.875375 82.7645625,13.875375 C83.5205625,13.875375 84.2259375,14.1886875 84.7509375,14.7579375 C85.1060625,15.1426875 85.6055625,15.3615 86.1290625,15.3615 C86.6525625,15.3615 87.15225,15.1426875 87.5071875,14.7579375 C88.0321875,14.188875 88.7375625,13.875375 89.4935625,13.875375 C91.0134375,13.875375 92.25,15.1651875 92.25,16.7506875 C92.25,18.213375 89.2621875,21.5349375 86.1285,24.14025 Z" id="Shape" fill="#40C8E9"></path>
                            <path d="M13.2354375,0.0005625 C12.0435,0.0005625 10.878375,0.3388125 9.8709375,0.957375 C8.8635,0.3388125 7.698375,0.0005625 6.5064375,0.0005625 C2.9188125,0.000375 0,2.9724375 0,6.6256875 C0,8.6960625 1.4885625,11.1825 4.5508125,14.2275 C6.6125625,16.277625 8.6465625,17.8381875 8.7320625,17.903625 C9.0680625,18.1606875 9.4695,18.289125 9.8709375,18.289125 C10.272375,18.289125 10.673625,18.1606875 11.0098125,17.903625 C11.0955,17.8381875 13.1293125,16.277625 15.1910625,14.2276875 C18.2533125,11.1826875 19.741875,8.69625 19.741875,6.625875 C19.741875,2.972625 16.8230625,0.0005625 13.2354375,0.0005625 Z M9.870375,14.01525 C6.7366875,11.41275 3.75,8.0923125 3.75,6.6256875 C3.75,5.0401875 4.9865625,3.750375 6.5064375,3.750375 C7.2624375,3.750375 7.9678125,4.0636875 8.4928125,4.6329375 C8.8479375,5.0176875 9.3474375,5.2365 9.8709375,5.2365 C10.3944375,5.2365 10.894125,5.0176875 11.2490625,4.6329375 C11.7740625,4.063875 12.4794375,3.750375 13.2354375,3.750375 C14.7553125,3.750375 15.991875,5.0401875 15.991875,6.6256875 C15.991875,8.0881875 13.0040625,11.4099375 9.870375,14.01525 Z" id="Shape" fill="#40C8E9"></path>
                        </g>
                    </g>
                </g>
            </g>
        </g>
    </g>
</svg>