<?xml version="1.0" encoding="UTF-8"?>
<svg width="97px" height="96px" viewBox="0 0 97 96" version="1.1" xmlns="http://www.w3.org/2000/svg" xmlns:xlink="http://www.w3.org/1999/xlink">
    <!-- Generator: sketchtool 55.1 (78136) - https://sketchapp.com -->
    <title>A473DDE9-E81C-400B-B19F-A822B69DC114</title>
    <desc>Created with sketchtool.</desc>
    <g id="Page-1" stroke="none" stroke-width="1" fill="none" fill-rule="evenodd">
        <g id="Ilara's-Health-Main-Vol2" transform="translate(-672.000000, -4722.000000)" fill-rule="nonzero">
            <g id="We-Focus" transform="translate(122.000000, 3816.000000)">
                <g id="Focus_cards" transform="translate(13.000000, 846.000000)">
                    <g id="Noncommunicable_card" transform="translate(400.000000, 0.000000)">
                        <g id="Noncommunicable_icon" transform="translate(137.000000, 60.000000)">
                            <path d="M48.5004006,11.009845 C28.0700184,11.009845 11.5083052,27.5442848 11.5083052,47.9410227 C11.5083052,68.3377606 28.0700184,84.8722004 48.5004006,84.8722004 C68.9299619,84.8722004 85.492496,68.3377606 85.492496,47.9410227 C85.4686863,27.5541208 68.9209305,11.0327959 48.5004006,11.009845 Z M48.5004006,81.5148206 C29.9271767,81.5148206 14.871223,66.4828411 14.871223,47.9410227 C14.871223,29.3983845 29.9271767,14.3672248 48.5004006,14.3672248 C67.0728038,14.3672248 82.1295783,29.3983845 82.1295783,47.9410227 C82.1082317,66.4746444 67.0637725,81.4935092 48.5004006,81.5148206 Z" id="Shape" fill="#40C8E9"></path>
                            <path d="M32.84592,0.0532786795 C31.9025623,0.360656032 30.9723412,0.696721775 30.0544356,1.05983688 L31.2835097,4.18606904 C32.1414806,3.85000309 33.0093038,3.53934725 33.8878005,3.25246167 L32.84592,0.0532786795 Z" id="Path" fill="#40C8E9"></path>
                            <path d="M29.0183021,5.13443042 L27.626665,2.07869022 C14.1659628,8.17459678 4.06571503,19.8631309 0,34.0500277 L3.23155379,34.9729794 C7.02879364,21.7328045 16.455801,10.8237793 29.0183021,5.13443042 Z" id="Path" fill="#FFFFFF"></path>
                            <path d="M63.1121799,92.6361411 L64.1540604,95.825488 C65.0974179,95.5181107 66.027639,95.1820447 66.9455449,94.8181102 L65.7164705,91.6926977 C64.8593208,92.0369603 63.9906764,92.3517146 63.1121799,92.6361411 L63.1121799,92.6361411 Z" id="Path" fill="#40C8E9"></path>
                            <path d="M67.9816781,90.747615 L69.3733153,93.8025356 C82.8331965,87.7082682 92.9334442,76.0205537 96.9999802,61.8352964 L93.7684265,60.9123447 C89.9703656,74.1508801 80.5433583,85.0582661 67.9816781,90.747615 L67.9816781,90.747615 Z" id="Path" fill="#FFFFFF"></path>
                            <path d="M51.5152038,25.7705128 L48.5004006,28.7803513 L45.4847764,25.7705128 C41.5652037,21.9475589 35.294216,21.9836245 31.4189788,25.8524801 C27.5445625,29.7205161 27.5076164,35.9811768 31.3376973,39.8951145 L47.3115566,55.8426685 C47.9675555,56.4975871 49.0324247,56.4975871 49.6884236,55.8426685 L65.662283,39.8951145 C69.4923638,35.9811768 69.4554178,29.7205161 65.5810015,25.8524801 C61.7057642,21.9836245 55.4347766,21.9475589 51.5152038,25.7705128 Z M63.285416,37.5213421 L48.5004006,52.2820099 L33.7145642,37.5213421 C31.1529667,34.9262579 31.1677451,30.7541234 33.7482262,28.1778918 C36.3287073,25.6008405 40.5085449,25.5860865 43.1079094,28.1442852 L47.3115566,32.34101 C47.9675555,32.9959286 49.0324247,32.9959286 49.6884236,32.34101 L53.8920708,28.1442852 C56.4914356,25.5860865 60.6712729,25.6008405 63.251754,28.1778918 C65.8322352,30.7541234 65.8470135,34.9262579 63.285416,37.5213421 L63.285416,37.5213421 Z" id="Shape" fill="#FFFFFF"></path>
                            <polygon id="Path" fill="#40C8E9" points="30.0043529 66.4066115 33.3672707 66.4066115 33.3672707 69.7639913 30.0043529 69.7639913"></polygon>
                            <polygon id="Path" fill="#40C8E9" points="63.6335305 66.4066115 66.9964483 66.4066115 66.9964483 69.7639913 63.6335305 69.7639913"></polygon>
                            <path d="M53.7122663,67.3344811 L51.8633184,71.0459596 L46.6506317,60.6197216 C46.3345372,60.0910327 45.7622827,59.7664422 45.1456932,59.7664422 C44.5282825,59.7664422 43.9568492,60.0910327 43.6407545,60.6197216 L40.7351477,66.4066115 L36.7301884,66.4066115 L36.7301884,69.7639913 L41.7745651,69.7639913 C42.4116804,69.7639913 42.9937871,69.4049745 43.2786826,68.8353021 L45.1374828,65.1238237 L50.3493486,75.5500617 C50.6342442,76.1197341 51.217172,76.4803901 51.8542873,76.4803901 C52.4922235,76.4803901 53.075151,76.1197341 53.3592257,75.5500617 L56.2648325,69.7639913 L60.2706128,69.7639913 L60.2706128,66.4066115 L55.2262361,66.4066115 C54.5858368,66.4033328 53.9988039,66.7631693 53.7122663,67.3344811 L53.7122663,67.3344811 Z" id="Path" fill="#FFFFFF"></path>
                            <path d="M92.2183315,47.9410227 C92.2183315,23.836085 72.6450992,4.29508547 48.5004006,4.29508547 C24.354881,4.29508547 4.78246967,23.836085 4.78246967,47.9410227 C4.78246967,72.0459604 24.354881,91.5869599 48.5004006,91.5869599 C72.633605,91.5599108 92.1912378,72.0344849 92.2183315,47.9410227 Z M48.5004006,88.2295802 C26.2128603,88.2295802 8.14538743,70.1918604 8.14538743,47.9410227 C8.14538743,25.690185 26.2128603,7.65246526 48.5004006,7.65246526 C70.78712,7.65246526 88.8554138,25.690185 88.8554138,47.9410227 C88.829141,70.1812047 70.7764467,88.2033506 48.5004006,88.2295802 Z" id="Shape" fill="#FFFFFF"></path>
                        </g>
                    </g>
                </g>
            </g>
        </g>
    </g>
</svg>