<?xml version="1.0" encoding="UTF-8"?>
<svg width="96px" height="96px" viewBox="0 0 96 96" version="1.1" xmlns="http://www.w3.org/2000/svg" xmlns:xlink="http://www.w3.org/1999/xlink">
    <!-- Generator: sketchtool 55.1 (78136) - https://sketchapp.com -->
    <title>F1F23B38-36F1-4CAB-BA35-A7A19ADB7AC2</title>
    <desc>Created with sketchtool.</desc>
    <g id="Page-1" stroke="none" stroke-width="1" fill="none" fill-rule="evenodd">
        <g id="Ilara's-Health-Main-Vol2" transform="translate(-1072.000000, -1537.000000)" fill-rule="nonzero">
            <g id="Our-Solution" transform="translate(-21.000000, 1243.000000)">
                <g id="Solution_cards" transform="translate(152.000000, 234.000000)">
                    <g id="Software_card" transform="translate(804.000000, 0.000000)">
                        <g id="Software_icon" transform="translate(137.000000, 60.000000)">
                            <path d="M96,49.5483871 C96,39.1912258 88.6947097,30.5187097 78.9677419,28.3850323 L78.9677419,7.74193548 C78.9677419,3.47303226 75.4947097,0 71.2258065,0 L30.9677419,0 C26.6988387,0 23.2258065,3.47303226 23.2258065,7.74193548 L23.2258065,24.7741935 L14.2745806,24.7741935 L13.3409032,28.5150968 L10.0366452,26.5316129 L1.75587097,34.8077419 L3.73935484,38.1150968 L0,39.0487742 L0,50.7576774 L3.74090323,51.6913548 L1.75587097,54.9987097 L10.0350968,63.2763871 L13.3393548,61.2929032 L14.2745806,65.0322581 L23.2258065,65.0322581 L23.2258065,88.2580645 C23.2258065,92.5269677 26.6988387,96 30.9677419,96 L71.2258065,96 C75.4947097,96 78.9677419,92.5269677 78.9677419,88.2580645 L78.9677419,70.7117419 C88.6947097,68.5780645 96,59.9055484 96,49.5483871 Z M92.9032258,49.5483871 C92.9032258,52.5661935 92.1646452,55.4090323 90.8825806,57.9313548 C90.0232258,55.5669677 88.0459355,53.7073548 85.4910968,53.067871 L78.9677419,51.435871 L78.9677419,51.0658065 C80.8970323,49.611871 82.0645161,47.3249032 82.0645161,44.9047742 L82.0645161,41.808 C82.0645161,39.6449032 81.1494194,37.563871 79.5530323,36.0990968 C77.9581935,34.6389677 75.7966452,33.9050323 73.6350968,34.0954839 C69.6789677,34.4376774 66.5806452,37.968 66.5806452,42.1269677 L66.5806452,44.9032258 C66.5806452,47.3233548 67.748129,49.6103226 69.6774194,51.0642581 L69.6774194,51.4343226 L63.1540645,53.0663226 C60.5992258,53.7058065 58.6219355,55.5654194 57.7625806,57.9298065 C56.4805161,55.4090323 55.7419355,52.5661935 55.7419355,49.5483871 C55.7419355,39.3027097 64.0769032,30.9677419 74.3225806,30.9677419 C84.5682581,30.9677419 92.9032258,39.3027097 92.9032258,49.5483871 Z M69.6774194,28.3850323 C68.612129,28.6188387 67.5809032,28.9409032 66.5806452,29.3249032 L66.5806452,24.7741935 L35.6129032,24.7741935 L35.6129032,46.4516129 L52.8929032,46.4516129 C52.7458065,47.4658065 52.6451613,48.4939355 52.6451613,49.5483871 C52.6451613,59.9055484 59.9504516,68.5780645 69.6774194,70.7117419 L69.6774194,74.3225806 L32.516129,74.3225806 L32.516129,21.6774194 L69.6774194,21.6774194 L69.6774194,28.3850323 Z M53.5587097,43.3548387 L38.7096774,43.3548387 L38.7096774,27.8709677 L63.483871,27.8709677 L63.483871,30.8036129 C58.7550968,33.5489032 55.1535484,38.0175484 53.5587097,43.3548387 Z M30.9677419,3.09677419 L71.2258065,3.09677419 C73.7868387,3.09677419 75.8709677,5.18090323 75.8709677,7.74193548 L75.8709677,12.3870968 L26.3225806,12.3870968 L26.3225806,7.74193548 C26.3225806,5.18090323 28.4067097,3.09677419 30.9677419,3.09677419 Z M23.2258065,51.9824516 C22.2487742,52.4129032 21.1943226,52.6451613 20.1290323,52.6451613 C15.860129,52.6451613 12.3870968,49.172129 12.3870968,44.9032258 C12.3870968,40.6343226 15.860129,37.1612903 20.1290323,37.1612903 C21.1943226,37.1612903 22.2487742,37.3935484 23.2258065,37.824 L23.2258065,51.9824516 Z M16.6931613,61.9354839 L15.9390968,58.9176774 L15.6247742,58.0892903 L13.8565161,57.3708387 L10.5150968,59.3775484 L5.65625806,54.5171613 L7.66296774,51.1741935 L6.88877419,49.2851613 L3.09677419,48.3390968 L3.09677419,41.4673548 L6.88412903,40.5212903 L7.66296774,38.6322581 L5.65625806,35.2892903 L10.5150968,30.4289032 L13.8565161,32.4356129 L15.7455484,31.6676129 L16.6931613,27.8709677 L23.2258065,27.8709677 L23.2258065,34.5367742 C22.2209032,34.2348387 21.1803871,34.0645161 20.1290323,34.0645161 C14.1522581,34.0645161 9.29032258,38.928 9.29032258,44.9032258 C9.29032258,50.8784516 14.1522581,55.7419355 20.1290323,55.7419355 C21.1803871,55.7419355 22.2209032,55.5716129 23.2258065,55.2696774 L23.2258065,61.9354839 L16.6931613,61.9354839 Z M71.2258065,92.9032258 L30.9677419,92.9032258 C28.4067097,92.9032258 26.3225806,90.8190968 26.3225806,88.2580645 L26.3225806,83.6129032 L75.8709677,83.6129032 L75.8709677,88.2580645 C75.8709677,90.8190968 73.7868387,92.9032258 71.2258065,92.9032258 Z M75.8709677,80.516129 L26.3225806,80.516129 L26.3225806,15.483871 L75.8709677,15.483871 L75.8709677,27.9499355 C75.3569032,27.9127742 74.8459355,27.8709677 74.3225806,27.8709677 C73.7992258,27.8709677 73.2882581,27.9127742 72.7741935,27.9499355 L72.7741935,18.5806452 L29.4193548,18.5806452 L29.4193548,77.4193548 L72.7741935,77.4193548 L72.7741935,71.1468387 C73.2882581,71.184 73.7992258,71.2258065 74.3225806,71.2258065 C74.8459355,71.2258065 75.3569032,71.184 75.8709677,71.1468387 L75.8709677,80.516129 Z M74.3225806,68.1290323 C68.7716129,68.1290323 63.7950968,65.6686452 60.3870968,61.7976774 L60.3870968,60.5775484 C60.3870968,58.4423226 61.8348387,56.5889032 63.9050323,56.0701935 L72.7741935,53.8544516 L72.7741935,49.3470968 L72.0046452,48.8996129 C70.5476129,48.0510968 69.6774194,46.5569032 69.6774194,44.9032258 L69.6774194,42.1269677 C69.6774194,39.5581935 71.5339355,37.3858065 73.9029677,37.179871 C75.2314839,37.0730323 76.4903226,37.4910968 77.4611613,38.3814194 C78.4180645,39.2593548 78.9677419,40.5073548 78.9677419,41.8064516 L78.9677419,44.9032258 C78.9677419,46.5569032 78.0975484,48.0510968 76.6405161,48.8996129 L75.8709677,49.3470968 L75.8709677,53.8544516 L84.740129,56.0701935 C86.8103226,56.5889032 88.2580645,58.4423226 88.2580645,60.5775484 L88.2580645,61.7976774 C84.8500645,65.6686452 79.8735484,68.1290323 74.3225806,68.1290323 Z" id="Shape" fill="#252161"></path>
                            <polygon id="Path" fill="#252161" points="57.2903226 6.19354839 60.3870968 6.19354839 60.3870968 9.29032258 57.2903226 9.29032258"></polygon>
                            <polygon id="Path" fill="#252161" points="41.8064516 6.19354839 54.1935484 6.19354839 54.1935484 9.29032258 41.8064516 9.29032258"></polygon>
                            <polygon id="Path" fill="#252161" points="44.9032258 86.7096774 57.2903226 86.7096774 57.2903226 89.8064516 44.9032258 89.8064516"></polygon>
                            <polygon id="Path" fill="#252161" points="66.5806452 86.7096774 69.6774194 86.7096774 69.6774194 89.8064516 66.5806452 89.8064516"></polygon>
                            <polygon id="Path" fill="#252161" points="32.516129 86.7096774 35.6129032 86.7096774 35.6129032 89.8064516 32.516129 89.8064516"></polygon>
                            <polygon id="Path" fill="#40C8E9" points="35.6129032 49.5483871 49.5483871 49.5483871 49.5483871 52.6451613 35.6129032 52.6451613"></polygon>
                            <polygon id="Path" fill="#40C8E9" points="35.6129032 55.7419355 49.5483871 55.7419355 49.5483871 58.8387097 35.6129032 58.8387097"></polygon>
                            <polygon id="Path" fill="#40C8E9" points="35.6129032 61.9354839 49.5483871 61.9354839 49.5483871 65.0322581 35.6129032 65.0322581"></polygon>
                            <polygon id="Path" fill="#40C8E9" points="35.6129032 68.1290323 49.5483871 68.1290323 49.5483871 71.2258065 35.6129032 71.2258065"></polygon>
                            <path d="M86.7096774,27.8709677 C89.2707097,27.8709677 91.3548387,25.7868387 91.3548387,23.2258065 C91.3548387,21.2098065 90.0557419,19.5065806 88.2580645,18.8655484 L88.2580645,6.19354839 L85.1612903,6.19354839 L85.1612903,18.8655484 C83.3636129,19.5065806 82.0645161,21.2098065 82.0645161,23.2258065 C82.0645161,25.7868387 84.1486452,27.8709677 86.7096774,27.8709677 Z M86.7096774,21.6774194 C87.5628387,21.6774194 88.2580645,22.3710968 88.2580645,23.2258065 C88.2580645,24.0805161 87.5628387,24.7741935 86.7096774,24.7741935 C85.8565161,24.7741935 85.1612903,24.0805161 85.1612903,23.2258065 C85.1612903,22.3710968 85.8565161,21.6774194 86.7096774,21.6774194 Z" id="Shape" fill="#40C8E9"></path>
                            <polygon id="Path" fill="#252161" points="85.1612903 0 88.2580645 0 88.2580645 3.09677419 85.1612903 3.09677419"></polygon>
                            <path d="M15.483871,68.1290323 C12.9228387,68.1290323 10.8387097,70.2131613 10.8387097,72.7741935 C10.8387097,74.7901935 12.1378065,76.4934194 13.9354839,77.1344516 L13.9354839,89.8064516 L17.0322581,89.8064516 L17.0322581,77.1344516 C18.8299355,76.4934194 20.1290323,74.7901935 20.1290323,72.7741935 C20.1290323,70.2131613 18.0449032,68.1290323 15.483871,68.1290323 Z M15.483871,74.3225806 C14.6307097,74.3225806 13.9354839,73.6289032 13.9354839,72.7741935 C13.9354839,71.9194839 14.6307097,71.2258065 15.483871,71.2258065 C16.3370323,71.2258065 17.0322581,71.9194839 17.0322581,72.7741935 C17.0322581,73.6289032 16.3370323,74.3225806 15.483871,74.3225806 Z" id="Shape" fill="#252161"></path>
                            <polygon id="Path" fill="#252161" points="13.9354839 92.9032258 17.0322581 92.9032258 17.0322581 96 13.9354839 96"></polygon>
                        </g>
                    </g>
                </g>
            </g>
        </g>
    </g>
</svg>