<?xml version="1.0" encoding="UTF-8"?>
<svg width="172px" height="50px" viewBox="0 0 172 50" version="1.1" xmlns="http://www.w3.org/2000/svg" xmlns:xlink="http://www.w3.org/1999/xlink">
    <!-- Generator: Sketch 55.1 (78136) - https://sketchapp.com -->
    <title>Topnav_Logo</title>
    <desc>Created with Sketch.</desc>
    <defs>
        <path d="M39.0135608,14.9764706 L21.498533,4.83933824 L3.98313859,14.9764706 L3.98313859,35.2518382 L21.498533,45.3893382 L39.0135608,35.2518382 M21.498533,0.228676471 L42.9966994,12.6713235 L42.9966994,37.5569853 L21.498533,49.9996324 L0,37.5569853 L0,12.6713235 L21.498533,0.228676471" id="path-1"></path>
    </defs>
    <g id="Page-1" stroke="none" stroke-width="1" fill="none" fill-rule="evenodd">
        <g id="Ilara's-Health-Main-Vol2" transform="translate(-135.000000, -20.000000)">
            <g id="Header">
                <g id="Topnav" transform="translate(135.000000, 20.000000)">
                    <g id="Topnav_Logo">
                        <polyline id="Fill-1" fill="#A7CBDD" points="29.9833774 20.7665441 33.9775181 20.7665441 33.9775181 22.7952206 29.9833774 20.7665441"></polyline>
                        <polyline id="Fill-2" fill="#01A0C6" points="25.8333731 20.7665441 29.9833774 20.7665441 29.0859701 26.0238971 25.8333731 20.7665441"></polyline>
                        <polyline id="Fill-3" fill="#0C2D7F" points="20.2226525 20.7665441 25.8333731 20.7665441 20.2516247 20.8091912 20.2226525 20.7665441"></polyline>
                        <polyline id="Fill-4" fill="#0C2D7F" points="17.1581919 20.8330882 20.2226525 20.7665441 20.206516 20.8091912 17.1581919 20.8330882"></polyline>
                        <polyline id="Fill-5" fill="#262262" points="20.2516247 20.8091912 25.8333731 20.7665441 22.4157441 24.0941176 20.2516247 20.8091912"></polyline>
                        <polyline id="Fill-6" fill="#5C7BAE" points="22.4157441 24.0941176 25.8333731 20.7665441 24.938533 25.5580882 24.9355991 25.5580882 22.4157441 24.0941176"></polyline>
                        <polyline id="Fill-7" fill="#2DB0D0" points="29.9833774 20.7665441 33.9775181 22.7952206 29.0859701 26.0238971 29.9833774 20.7665441"></polyline>
                        <polyline id="Fill-8" fill="#0C2D7F" points="20.2226525 20.7665441 20.2516247 20.8091912 20.206516 20.8091912 20.2226525 20.7665441"></polyline>
                        <polyline id="Fill-9" fill="#5BAACF" points="25.8333731 20.7665441 29.0859701 26.0238971 28.6213134 29.4632353 25.8333731 20.7665441"></polyline>
                        <polyline id="Fill-10" fill="#3E9DC7" points="25.8333731 20.7665441 28.6213134 29.4632353 24.938533 25.5610294 24.938533 25.5580882 25.8333731 20.7665441"></polyline>
                        <polyline id="Fill-11" fill="#5C7BAE" points="20.206516 20.8091912 20.2516247 20.8091912 22.4157441 24.0941176 18.8627889 24.4933824 20.206516 20.8091912"></polyline>
                        <polyline id="Fill-12" fill="#0C2D7F" points="17.1581919 20.8330882 20.206516 20.8091912 18.8627889 24.4933824 17.1581919 20.8330882"></polyline>
                        <polyline id="Fill-13" fill="#275597" points="17.1581919 20.8330882 18.8627889 24.4933824 17.1581919 29.4632353 17.1581919 20.8330882"></polyline>
                        <polyline id="Fill-14" fill="#3E9DC7" points="29.0859701 26.0238971 33.9775181 22.7952206 33.9775181 26.3569853 29.0859701 26.0238971"></polyline>
                        <polyline id="Fill-15" fill="#25376E" points="18.8627889 24.4933824 22.4157441 24.0941176 24.9355991 25.5580882 18.8627889 24.4933824"></polyline>
                        <polyline id="Fill-16" fill="#4268A2" points="18.8627889 24.4933824 24.9355991 25.5580882 24.938533 25.5580882 24.938533 25.5610294 21.2209126 30.4136029 18.8627889 24.4933824"></polyline>
                        <polyline id="Fill-17" fill="#5C7BAE" points="18.8627889 24.4933824 21.2209126 30.4136029 21.2209126 30.4161765 21.2179787 30.4161765 17.1581919 29.4632353 18.8627889 24.4933824"></polyline>
                        <polyline id="Fill-18" fill="#262262" points="21.2209126 30.4136029 24.938533 25.5610294 25.8333731 29.4632353 21.2209126 30.4161765 21.2209126 30.4136029"></polyline>
                        <polyline id="Fill-19" fill="#5BAACF" points="24.938533 25.5610294 28.6213134 29.4632353 25.8333731 29.4632353 24.938533 25.5610294"></polyline>
                        <polyline id="Fill-20" fill="#5BAACF" points="29.0859701 26.0238971 33.9775181 26.3569853 31.4096205 29.4632353 29.0859701 26.0238971"></polyline>
                        <polyline id="Fill-21" fill="#80BDD9" points="29.0859701 26.0238971 31.4096205 29.4632353 28.6213134 29.4632353 29.0859701 26.0238971"></polyline>
                        <polyline id="Fill-22" fill="#53BED8" points="33.9775181 26.3569853 33.9775181 29.4632353 31.4096205 29.4632353 33.9775181 26.3569853"></polyline>
                        <polyline id="Fill-23" fill="#09438B" points="17.1581919 29.4632353 21.2179787 30.4161765 17.1581919 34.1242647 17.1581919 29.4632353"></polyline>
                        <polyline id="Fill-24" fill="#404D81" points="21.2209126 30.4161765 25.8333731 29.4632353 25.8333731 32.3783088 23.517791 31.3930147 21.2209126 30.4161765"></polyline>
                        <polyline id="Fill-25" fill="#262262" points="21.2179787 30.4161765 21.2209126 30.4161765 23.517791 31.3930147 20.3392751 32.7588235 17.1581919 34.1242647 21.2179787 30.4161765"></polyline>
                        <polyline id="Fill-26" fill="#7D94BE" points="20.3392751 32.7588235 23.517791 31.3930147 22.8459275 34.1242647 21.0192068 37.6246324 20.3392751 32.7588235"></polyline>
                        <polyline id="Fill-27" fill="#262262" points="23.517791 31.3930147 25.8333731 32.3783088 22.8459275 34.1242647 23.517791 31.3930147"></polyline>
                        <polyline id="Fill-28" fill="#25376E" points="22.8459275 34.1242647 25.8333731 32.3783088 25.8333731 35.5724265 22.8459275 34.1242647"></polyline>
                        <polyline id="Fill-29" fill="#5C7BAE" points="17.1581919 34.1242647 20.3392751 32.7588235 21.0192068 37.6246324 17.1581919 34.1242647"></polyline>
                        <polyline id="Fill-30" fill="#4268A2" points="17.1581919 34.1242647 21.0192068 37.6246324 17.1581919 37.6246324 17.1581919 34.1242647"></polyline>
                        <polyline id="Fill-31" fill="#275597" points="22.8459275 34.1242647 25.8333731 35.5724265 21.0192068 37.6246324 22.8459275 34.1242647"></polyline>
                        <polyline id="Fill-32" fill="#09438B" points="21.0192068 37.6246324 25.8333731 35.5724265 25.8333731 37.6246324 21.0192068 37.6246324"></polyline>
                        <polyline id="Fill-33" fill="#A7CBDD" points="17.1603923 16.6058824 17.1603923 12.6022059 19.1836844 12.6022059 17.1603923 16.6058824"></polyline>
                        <polyline id="Fill-34" fill="#01A0C6" points="17.1603923 20.7665441 17.1603923 16.6058824 22.4043753 17.5055147 17.1603923 20.7665441"></polyline>
                        <polyline id="Fill-35" fill="#0C2D7F" points="17.1603923 26.3911765 17.1603923 20.7665441 17.2025672 26.3617647 17.1603923 26.3911765"></polyline>
                        <polyline id="Fill-36" fill="#0C2D7F" points="17.2267719 29.4632353 17.1603923 26.3911765 17.2025672 26.4069853 17.2267719 29.4632353"></polyline>
                        <polyline id="Fill-37" fill="#262262" points="17.2025672 26.3617647 17.1603923 20.7665441 20.4793689 24.1926471 17.2025672 26.3617647"></polyline>
                        <polyline id="Fill-38" fill="#5C7BAE" points="20.4793689 24.1926471 17.1603923 20.7665441 21.9397186 21.6636029 21.9397186 21.6661765 20.4793689 24.1926471"></polyline>
                        <polyline id="Fill-39" fill="#2DB0D0" points="17.1603923 16.6058824 19.1836844 12.6022059 22.4043753 17.5055147 17.1603923 16.6058824"></polyline>
                        <polyline id="Fill-40" fill="#0C2D7F" points="17.1603923 26.3911765 17.2025672 26.3617647 17.2025672 26.4069853 17.1603923 26.3911765"></polyline>
                        <polyline id="Fill-41" fill="#5BAACF" points="17.1603923 20.7665441 22.4043753 17.5055147 25.8352068 17.9713235 17.1603923 20.7665441"></polyline>
                        <polyline id="Fill-42" fill="#3E9DC7" points="17.1603923 20.7665441 25.8352068 17.9713235 21.9426525 21.6636029 21.9397186 21.6636029 17.1603923 20.7665441"></polyline>
                        <polyline id="Fill-43" fill="#5C7BAE" points="17.2025672 26.4069853 17.2025672 26.3617647 20.4793689 24.1926471 20.8776461 27.7540441 17.2025672 26.4069853"></polyline>
                        <polyline id="Fill-44" fill="#0C2D7F" points="17.2267719 29.4632353 17.2025672 26.4069853 20.8776461 27.7540441 17.2267719 29.4632353"></polyline>
                        <polyline id="Fill-45" fill="#275597" points="17.2267719 29.4632353 20.8776461 27.7540441 25.8352068 29.4632353 17.2267719 29.4632353"></polyline>
                        <polyline id="Fill-46" fill="#5BAACF" points="22.4043753 17.5055147 19.1836844 12.6022059 22.7366397 12.6022059 22.4043753 17.5055147"></polyline>
                        <polyline id="Fill-47" fill="#25376E" points="20.8776461 27.7540441 20.4793689 24.1926471 21.9397186 21.6661765 20.8776461 27.7540441"></polyline>
                        <polyline id="Fill-48" fill="#4268A2" points="20.8787463 27.7533088 21.9411855 21.6654412 21.9411855 21.6628676 21.9437527 21.6628676 25.836307 24.6602941 25.836307 25.7702206 20.8787463 27.7533088"></polyline>
                        <polyline id="Fill-49" fill="#5C7BAE" points="20.8787463 27.7533088 25.836307 25.7702206 25.836307 29.4625 20.8787463 27.7533088"></polyline>
                        <polyline id="Fill-50" fill="#262262" points="21.9437527 21.6628676 25.836307 20.7658088 25.836307 24.6602941 21.9437527 21.6628676"></polyline>
                        <polyline id="Fill-51" fill="#5BAACF" points="21.9437527 21.6628676 25.836307 17.9709559 25.836307 20.7658088 21.9437527 21.6628676"></polyline>
                        <polyline id="Fill-52" fill="#4689BE" points="22.4043753 17.5055147 22.7366397 12.6022059 25.8352068 15.1764706 22.4043753 17.5055147"></polyline>
                        <polyline id="Fill-53" fill="#80BDD9" points="22.4043753 17.5055147 25.8352068 15.1764706 25.8352068 17.9713235 22.4043753 17.5055147"></polyline>
                        <polyline id="Fill-54" fill="#53BED8" points="22.7366397 12.6022059 25.8352068 12.6022059 25.8352068 15.1764706 22.7366397 12.6022059"></polyline>
                        <polyline id="Fill-55" fill="#0C2D7F" points="25.8352068 33.6202206 25.8352068 37.6264706 23.811548 37.6264706 25.8352068 33.6202206"></polyline>
                        <polyline id="Fill-56" fill="#0C2D7F" points="25.8352068 29.4625 25.8352068 33.6202206 20.5908571 32.7231618 25.8352068 29.4625"></polyline>
                        <polyline id="Fill-57" fill="#0C2D7F" points="25.8352068 23.8378676 25.8352068 29.4625 25.7926652 23.8669118 25.8352068 23.8378676"></polyline>
                        <polyline id="Fill-58" fill="#0C2D7F" points="25.7688273 20.7658088 25.8352068 23.8378676 25.7926652 23.8216912 25.7688273 20.7658088"></polyline>
                        <polyline id="Fill-59" fill="#262262" points="25.7926652 23.8669118 25.8352068 29.4625 22.5158635 26.0338235 25.7926652 23.8669118"></polyline>
                        <polyline id="Fill-60" fill="#275597" points="22.5158635 26.0338235 25.8352068 29.4625 21.0555139 28.5628676 22.5158635 26.0338235"></polyline>
                        <polyline id="Fill-61" fill="#25376E" points="25.8352068 33.6202206 23.811548 37.6264706 20.5908571 32.7231618 25.8352068 33.6202206"></polyline>
                        <polyline id="Fill-62" fill="#0C2D7F" points="25.8352068 23.8378676 25.7926652 23.8669118 25.7926652 23.8216912 25.8352068 23.8378676"></polyline>
                        <polyline id="Fill-63" fill="#25376E" points="25.8352068 29.4625 20.5908571 32.7231618 17.1600256 32.2573529 25.8352068 29.4625"></polyline>
                        <polyline id="Fill-64" fill="#404D81" points="25.8352068 29.4625 17.1600256 32.2573529 21.0555139 28.5628676 25.8352068 29.4625"></polyline>
                        <polyline id="Fill-65" fill="#5C7BAE" points="25.7926652 23.8216912 25.7926652 23.8669118 22.5158635 26.0338235 22.1175864 22.4746324 25.7926652 23.8216912"></polyline>
                        <polyline id="Fill-66" fill="#0C2D7F" points="25.7688273 20.7658088 25.7926652 23.8216912 22.1175864 22.4746324 25.7688273 20.7658088"></polyline>
                        <polyline id="Fill-67" fill="#275597" points="25.7688273 20.7658088 22.1175864 22.4746324 17.1600256 20.7658088 25.7688273 20.7658088"></polyline>
                        <polyline id="Fill-68" fill="#7D94BE" points="20.5908571 32.7231618 23.811548 37.6264706 20.2589595 37.6264706 20.5908571 32.7231618"></polyline>
                        <polyline id="Fill-69" fill="#25376E" points="22.1175864 22.4746324 22.5158635 26.0338235 21.0555139 28.5628676 22.1175864 22.4746324"></polyline>
                        <polyline id="Fill-70" fill="#4268A2" points="22.1175864 22.4746324 21.0555139 28.5628676 16.2094414 24.8356618 22.1175864 22.4746324"></polyline>
                        <polyline id="Fill-71" fill="#5C7BAE" points="22.1175864 22.4746324 16.2094414 24.8356618 17.1600256 20.7658088 22.1175864 22.4746324"></polyline>
                        <polyline id="Fill-72" fill="#5C7BAE" points="21.0555139 28.5628676 17.1600256 32.2573529 17.1600256 29.4625 21.0555139 28.5628676"></polyline>
                        <polyline id="Fill-73" fill="#262262" points="21.0555139 28.5628676 17.1600256 29.4625 16.2094414 24.8356618 21.0555139 28.5628676"></polyline>
                        <polyline id="Fill-74" fill="#0C2D7F" points="20.5908571 32.7231618 20.2589595 37.6264706 17.1600256 35.0525735 20.5908571 32.7231618"></polyline>
                        <polyline id="Fill-75" fill="#7D94BE" points="20.5908571 32.7231618 17.1600256 35.0525735 17.1600256 32.2573529 20.5908571 32.7231618"></polyline>
                        <polyline id="Fill-76" fill="#262262" points="20.2589595 37.6264706 17.1600256 37.6264706 17.1600256 35.0525735 20.2589595 37.6264706"></polyline>
                        <polyline id="Fill-77" fill="#09438B" points="17.1600256 20.7658088 16.2094414 24.8356618 12.5105245 20.7658088 17.1600256 20.7658088"></polyline>
                        <polyline id="Fill-78" fill="#5C7BAE" points="16.2094414 24.8356618 17.1600256 29.4625 14.252162 29.4625 15.2350192 27.1408088 16.2094414 24.8356618"></polyline>
                        <polyline id="Fill-79" fill="#262262" points="12.5105245 20.7658088 16.2094414 24.8356618 15.2350192 27.1408088 12.5105245 20.7658088"></polyline>
                        <polyline id="Fill-80" fill="#7D94BE" points="13.8725885 23.9522059 15.2350192 27.1408088 12.5130917 26.4676471 9.01844776 24.6360294 13.8725885 23.9522059"></polyline>
                        <polyline id="Fill-81" fill="#262262" points="15.2350192 27.1408088 14.252162 29.4625 12.5130917 26.4676471 15.2350192 27.1408088"></polyline>
                        <polyline id="Fill-82" fill="#25376E" points="12.5130917 26.4676471 14.252162 29.4625 11.0659446 29.4625 12.5130917 26.4676471"></polyline>
                        <polyline id="Fill-83" fill="#5C7BAE" points="12.5105245 20.7658088 13.8725885 23.9522059 9.01844776 24.6360294 12.5105245 20.7658088"></polyline>
                        <polyline id="Fill-84" fill="#275597" points="12.5130917 26.4676471 11.0659446 29.4625 9.01844776 24.6360294 12.5130917 26.4676471"></polyline>
                        <polyline id="Fill-85" fill="#4268A2" points="12.5105245 20.7658088 9.01844776 24.6360294 9.01844776 20.7658088 12.5105245 20.7658088"></polyline>
                        <polyline id="Fill-86" fill="#09438B" points="9.01844776 24.6360294 11.0659446 29.4625 9.01844776 29.4625 9.01844776 24.6360294"></polyline>
                        <g id="Group-125">
                            <mask id="mask-2" fill="white">
                                <use xlink:href="#path-1"></use>
                            </mask>
                            <g id="Clip-88"></g>
                            <polyline id="Fill-87" fill="#09438B" mask="url(#mask-2)" points="33.1908657 0.230147059 55.631548 0.230147059 50.7788742 28.65625 33.1908657 0.230147059"></polyline>
                            <polyline id="Fill-89" fill="#0C2D7F" mask="url(#mask-2)" points="2.86788913 0.230147059 33.1908657 0.230147059 3.02595309 0.460661765 2.86788913 0.230147059"></polyline>
                            <polyline id="Fill-90" fill="#0C2D7F" mask="url(#mask-2)" points="-13.7148913 0.590073529 2.86788913 0.230147059 2.78207249 0.460661765 -13.7148913 0.590073529"></polyline>
                            <polyline id="Fill-91" fill="#262262" mask="url(#mask-2)" points="3.02595309 0.460661765 33.1908657 0.230147059 14.7127846 18.2213235 3.02595309 0.460661765"></polyline>
                            <polyline id="Fill-92" fill="#275597" mask="url(#mask-2)" points="14.7127846 18.2213235 33.1908657 0.230147059 28.3524947 26.1375 14.7127846 18.2213235"></polyline>
                            <polyline id="Fill-93" fill="#0C2D7F" mask="url(#mask-2)" points="2.86788913 0.230147059 3.02595309 0.460661765 2.78207249 0.460661765 2.86788913 0.230147059"></polyline>
                            <polyline id="Fill-94" fill="#25376E" mask="url(#mask-2)" points="33.1908657 0.230147059 50.7788742 28.65625 48.2659872 47.2522059 33.1908657 0.230147059"></polyline>
                            <polyline id="Fill-95" fill="#404D81" mask="url(#mask-2)" points="33.1908657 0.230147059 48.2659872 47.2522059 28.3524947 26.1375 33.1908657 0.230147059"></polyline>
                            <polyline id="Fill-96" fill="#5C7BAE" mask="url(#mask-2)" points="2.78207249 0.460661765 3.02595309 0.460661765 14.7127846 18.2213235 -4.4973049 20.3805147 2.78207249 0.460661765"></polyline>
                            <polyline id="Fill-97" fill="#0C2D7F" mask="url(#mask-2)" points="-13.7148913 0.590073529 2.78207249 0.460661765 -4.4973049 20.3805147 -13.7148913 0.590073529"></polyline>
                            <polyline id="Fill-98" fill="#25376E" mask="url(#mask-2)" points="-4.4973049 20.3805147 14.7127846 18.2213235 28.3524947 26.1375 -4.4973049 20.3805147"></polyline>
                            <polyline id="Fill-99" fill="#4268A2" mask="url(#mask-2)" points="-4.4973049 20.3805147 28.3524947 26.1375 8.25196588 52.4047794 -4.4973049 20.3805147"></polyline>
                            <polyline id="Fill-100" fill="#5C7BAE" mask="url(#mask-2)" points="-4.4973049 20.3805147 8.25196588 52.4047794 -13.7148913 47.2522059 -4.4973049 20.3805147"></polyline>
                            <polyline id="Fill-101" fill="#5C7BAE" mask="url(#mask-2)" points="28.3524947 26.1375 48.2659872 47.2522059 33.1908657 47.2522059 28.3524947 26.1375"></polyline>
                            <polyline id="Fill-102" fill="#262262" mask="url(#mask-2)" points="28.3524947 26.1375 33.1908657 47.2522059 8.25196588 52.4047794 28.3524947 26.1375"></polyline>
                            <polyline id="Fill-103" fill="#09438B" mask="url(#mask-2)" points="-13.7148913 47.2522059 8.25196588 52.4047794 -13.7148913 72.4540441 -13.7148913 47.2522059"></polyline>
                            <polyline id="Fill-104" fill="#5C7BAE" mask="url(#mask-2)" points="8.25196588 52.4047794 33.1908657 47.2522059 33.1908657 63.0125 20.6854755 57.6867647 20.6711727 57.6867647 8.25196588 52.4047794"></polyline>
                            <polyline id="Fill-105" fill="#A7CBDD" mask="url(#mask-2)" points="8.59926652 27.3139706 22.1560938 27.3139706 22.1560938 34.1996324 8.59926652 27.3139706"></polyline>
                            <polyline id="Fill-106" fill="#01A0C6" mask="url(#mask-2)" points="-5.48933049 27.3139706 8.59926652 27.3139706 5.55277612 45.1602941 -5.48933049 27.3139706"></polyline>
                            <polyline id="Fill-107" fill="#2DB0D0" mask="url(#mask-2)" points="8.59926652 27.3139706 22.1560938 34.1996324 5.55277612 45.1602941 8.59926652 27.3139706"></polyline>
                            <polyline id="Fill-108" fill="#5BAACF" mask="url(#mask-2)" points="-5.48933049 27.3139706 5.55277612 45.1602941 3.97507036 56.8349265 -5.48933049 27.3139706"></polyline>
                            <polyline id="Fill-109" fill="#3E9DC7" mask="url(#mask-2)" points="-5.48933049 27.3139706 3.97507036 56.8349265 -8.52665245 43.5878676 -8.52665245 43.5786765 -5.48933049 27.3139706"></polyline>
                            <polyline id="Fill-110" fill="#3E9DC7" mask="url(#mask-2)" points="5.55277612 45.1602941 22.1560938 34.1996324 22.1560938 46.2897059 5.55277612 45.1602941"></polyline>
                            <polyline id="Fill-111" fill="#5BAACF" mask="url(#mask-2)" points="-8.52665245 43.5878676 3.97507036 56.8349265 -5.48933049 56.8349265 -8.52665245 43.5878676"></polyline>
                            <polyline id="Fill-112" fill="#5BAACF" mask="url(#mask-2)" points="5.55277612 45.1602941 22.1560938 46.2897059 13.439838 56.8349265 5.55277612 45.1602941"></polyline>
                            <polyline id="Fill-113" fill="#80BDD9" mask="url(#mask-2)" points="5.55277612 45.1602941 13.439838 56.8349265 3.97507036 56.8349265 5.55277612 45.1602941"></polyline>
                            <polyline id="Fill-114" fill="#53BED8" mask="url(#mask-2)" points="22.1560938 46.2897059 22.1560938 56.8349265 13.439838 56.8349265 22.1560938 46.2897059"></polyline>
                            <polyline id="Fill-115" fill="#A7CBDD" mask="url(#mask-2)" points="8.59926652 -1.29889706 22.1560938 -1.29889706 22.1560938 5.58639706 8.59926652 -1.29889706"></polyline>
                            <polyline id="Fill-116" fill="#01A0C6" mask="url(#mask-2)" points="-5.48933049 -1.29889706 8.59926652 -1.29889706 5.55277612 16.5474265 -5.48933049 -1.29889706"></polyline>
                            <polyline id="Fill-117" fill="#2DB0D0" mask="url(#mask-2)" points="8.59926652 -1.29889706 22.1560938 5.58639706 5.55277612 16.5474265 8.59926652 -1.29889706"></polyline>
                            <polyline id="Fill-118" fill="#5BAACF" mask="url(#mask-2)" points="-5.48933049 -1.29889706 5.55277612 16.5474265 3.97507036 28.2220588 -5.48933049 -1.29889706"></polyline>
                            <polyline id="Fill-119" fill="#3E9DC7" mask="url(#mask-2)" points="-5.48933049 -1.29889706 3.97507036 28.2220588 -8.52665245 14.975 -8.52665245 14.9661765 -5.48933049 -1.29889706"></polyline>
                            <polyline id="Fill-120" fill="#3E9DC7" mask="url(#mask-2)" points="5.55277612 16.5474265 22.1560938 5.58639706 22.1560938 17.6768382 5.55277612 16.5474265"></polyline>
                            <polyline id="Fill-121" fill="#5BAACF" mask="url(#mask-2)" points="-8.52665245 14.975 3.97507036 28.2220588 -5.48933049 28.2220588 -8.52665245 14.975"></polyline>
                            <polyline id="Fill-122" fill="#5BAACF" mask="url(#mask-2)" points="5.55277612 16.5474265 22.1560938 17.6768382 13.439838 28.2220588 5.55277612 16.5474265"></polyline>
                            <polyline id="Fill-123" fill="#80BDD9" mask="url(#mask-2)" points="5.55277612 16.5474265 13.439838 28.2220588 3.97507036 28.2220588 5.55277612 16.5474265"></polyline>
                            <polyline id="Fill-124" fill="#53BED8" mask="url(#mask-2)" points="22.1560938 17.6768382 22.1560938 28.2220588 13.439838 28.2220588 22.1560938 17.6768382"></polyline>
                        </g>
                        <polygon id="Fill-126" fill="#252161" points="48.7970235 30.7330882 51.1056375 30.7330882 51.1056375 19.4955882 48.7970235 19.4955882"></polygon>
                        <polyline id="Fill-127" fill="#252161" points="54.0817143 30.7330882 54.0817143 19.5875 56.3903284 19.5875 56.3903284 28.8397059 62.1312409 28.8397059 62.1312409 30.7330882 54.0817143 30.7330882"></polyline>
                        <path d="M70.9204776,26.2871324 L69.3449723,22.1169118 L67.8006397,26.2871324 L70.9204776,26.2871324 Z M75.1713348,30.7330882 L72.6599147,30.7330882 L71.6612878,28.1805147 L67.0910021,28.1805147 L66.1470192,30.7330882 L63.6979446,30.7330882 L68.1516077,19.4955882 L70.5926141,19.4955882 L75.1713348,30.7330882 L75.1713348,30.7330882 Z" id="Fill-128" fill="#252161"></path>
                        <path d="M79.4071557,24.2477941 L81.11542,24.2477941 C82.222968,24.2477941 82.9146354,24.2018382 83.1904222,24.1099265 C83.4654755,24.0180147 83.6818507,23.8599265 83.838081,23.6345588 C83.9935778,23.4099265 84.071693,23.1286765 84.071693,22.7915441 C84.071693,22.4132353 83.9690064,22.1080882 83.7636333,21.8753676 C83.5578934,21.6430147 83.2685373,21.4959559 82.8940981,21.4345588 C82.7070618,21.4091912 82.1455864,21.3963235 81.2093049,21.3963235 L79.4071557,21.3963235 L79.4071557,24.2477941 Z M77.0989083,30.7330882 L77.0989083,19.4955882 L81.9578166,19.4955882 C83.1797868,19.4955882 84.0680256,19.5963235 84.6217996,19.7981618 C85.1755736,20.0003676 85.6189595,20.3588235 85.9519574,20.875 C86.2842217,21.3915441 86.4503539,21.9816176 86.4503539,22.6459559 C86.4503539,23.4889706 86.1984051,24.1852941 85.6941407,24.7345588 C85.1898763,25.2841912 84.4354968,25.6305147 83.4321023,25.7735294 C83.9312324,26.0595588 84.3430789,26.3738971 84.6683753,26.7161765 C84.9933049,27.0588235 85.4319232,27.6669118 85.9827633,28.5408088 L87.3785672,30.7330882 L84.6173987,30.7330882 L82.9483753,28.2878676 C82.3560938,27.4139706 81.9501151,26.8636029 81.7315394,26.6356618 C81.5136972,26.4084559 81.2815522,26.2522059 81.0373049,26.1683824 C80.7930576,26.0838235 80.4057825,26.0415441 79.8754797,26.0415441 L79.4071557,26.0415441 L79.4071557,30.7330882 L77.0989083,30.7330882 L77.0989083,30.7330882 Z" id="Fill-129" fill="#252161"></path>
                        <path d="M95.9785672,26.2871324 L94.4026951,22.1169118 L92.8583625,26.2871324 L95.9785672,26.2871324 Z M100.228691,30.7330882 L97.7176375,30.7330882 L96.7190107,28.1805147 L92.1483582,28.1805147 L91.2051087,30.7330882 L88.7553006,30.7330882 L93.2093305,19.4955882 L95.6503369,19.4955882 L100.228691,30.7330882 L100.228691,30.7330882 Z" id="Fill-130" fill="#252161"></path>
                        <polyline id="Fill-131" fill="#252161" points="107.497066 30.7330882 107.497066 19.4955882 109.80568 19.4955882 109.80568 23.9183824 114.329757 23.9183824 114.329757 19.4955882 116.638371 19.4955882 116.638371 30.7330882 114.329757 30.7330882 114.329757 25.8194853 109.80568 25.8194853 109.80568 30.7330882 107.497066 30.7330882"></polyline>
                        <polyline id="Fill-132" fill="#252161" points="119.683028 30.7330882 119.683028 19.4955882 128.161638 19.4955882 128.161638 21.3963235 121.992375 21.3963235 121.992375 23.8878676 127.732554 23.8878676 127.732554 25.7808824 121.992375 25.7808824 121.992375 28.8397059 128.380213 28.8397059 128.380213 30.7330882 119.683028 30.7330882"></polyline>
                        <path d="M137.321646,26.2871324 L135.746507,22.1169118 L134.202175,26.2871324 L137.321646,26.2871324 Z M141.57287,30.7330882 L139.06145,30.7330882 L138.062823,28.1805147 L133.492537,28.1805147 L132.548188,30.7330882 L130.09948,30.7330882 L134.553143,19.4955882 L136.994149,19.4955882 L141.57287,30.7330882 L141.57287,30.7330882 Z" id="Fill-133" fill="#252161"></path>
                        <polyline id="Fill-134" fill="#252161" points="143.529049 30.7330882 143.529049 19.5875 145.837663 19.5875 145.837663 28.8397059 151.578576 28.8397059 151.578576 30.7330882 143.529049 30.7330882"></polyline>
                        <polyline id="Fill-135" fill="#252161" points="154.922857 30.7330882 154.922857 21.3963235 151.5298 21.3963235 151.5298 19.4955882 160.616827 19.4955882 160.616827 21.3963235 157.231471 21.3963235 157.231471 30.7330882 154.922857 30.7330882"></polyline>
                        <polyline id="Fill-136" fill="#252161" points="162.668725 30.7330882 162.668725 19.4955882 164.977339 19.4955882 164.977339 23.9183824 169.501416 23.9183824 169.501416 19.4955882 171.81003 19.4955882 171.81003 30.7330882 169.501416 30.7330882 169.501416 25.8194853 164.977339 25.8194853 164.977339 30.7330882 162.668725 30.7330882"></polyline>
                    </g>
                </g>
            </g>
        </g>
    </g>
</svg>